<svg xmlns="http://www.w3.org/2000/svg" viewBox="0 0 421.14 407.23"><defs><style>.cls-1{fill:#494949;}</style></defs><g id="Layer_2" data-name="Layer 2"><g id="Layer_1-2" data-name="Layer 1"><path class="cls-1" d="M248.91,300.78c12.61-1.54,24.18-3.61,35.43-7.31,34.8-11.47,53.44-36.09,58.55-71.74,1.9-13.23,2.73-26.47.28-39.76A78.17,78.17,0,0,0,325.62,145c-1.74-2.06-2.45-3.69-1.55-6.55,5.23-16.52,3.56-32.8-2.07-48.94-1-2.85-2.72-3.34-5.27-3.29-10,.19-19.23,3.47-28.22,7.51a150.58,150.58,0,0,0-22.59,12.64,6.6,6.6,0,0,1-5.95,1,199.67,199.67,0,0,0-98.79,0c-2.82.72-4.66,0-6.84-1.38-13.65-8.69-27.7-16.5-44-19.19l-.49-.11c-9.05-1.49-10.08-.92-12.62,7.85-4.31,14.86-5.14,29.79-.25,44.7a4.31,4.31,0,0,1-.91,4.86c-19,21.6-22.24,47.17-18.64,74.45a113.82,113.82,0,0,0,7,28c11.11,27.5,32.7,42.25,60.37,49.59A212.68,212.68,0,0,0,171.61,301a49.47,49.47,0,0,0-12.7,26.83c-.25,1.65-1.8,1.82-3,2.27-22.84,8.74-44.6,4.79-58.36-18.14C91.1,301.12,82,293.36,69.3,290.65A19.32,19.32,0,0,0,59,291c-3.48,1.14-4.16,3.26-1.82,6a23.64,23.64,0,0,0,5.59,4.93c11.25,6.7,18.39,16.81,23.17,28.57,7.9,19.45,23.18,27.83,43,29.64a80.36,80.36,0,0,0,25.81-1.72c2.7-.63,3.4.17,3.38,2.86-.06,11,.06,22,.16,33C158.34,405,152,409.56,141.6,406a204.53,204.53,0,0,1-60.28-32.49c-46-36.22-73.29-83.39-80-141.6C-10.37,129.67,55.15,34.51,155.07,7.44A210.78,210.78,0,0,1,414.32,156.9C441.17,258.08,386.65,363.84,287.45,403c-3.24,1.28-6.5,2.53-9.84,3.51-8.82,2.58-14.88-1.92-14.88-11.09,0-18.32.12-36.64.16-55,0-10.44-1.59-20.52-6.62-29.86C254.45,307.19,251.92,304.34,248.91,300.78Z"/><path class="cls-1" d="M156.92,338.75a5,5,0,0,1-5.45,3.26c-1.91-.12-3.87-.85-3.42-3.24.48-2.57,2.81-3.09,5-3.08C155,335.7,156.71,336.28,156.92,338.75Z"/><path class="cls-1" d="M108.61,331a2.44,2.44,0,0,1-3,2.42c-2.73-.37-4.5-1.93-4.76-4.75-.2-2.2,1.18-2.89,3.12-2.59C106.76,326.46,108.1,328.35,108.61,331Z"/><path class="cls-1" d="M136.1,337.7c2.26.21,4.64.51,4.64,3,0,2.68-2.44,3.33-4.66,3.29-2,0-4.22-.67-4.13-3.24S134.36,338,136.1,337.7Z"/><path class="cls-1" d="M119.54,341.36c-2.21-.33-4.53-1-4.55-3.93,0-2.14,1.8-2.46,3.56-2.41,2.54.06,4.78,1,5,3.69C123.81,341.07,121.64,341.34,119.54,341.36Z"/><path class="cls-1" d="M97.54,318.84c-.12,1.52-.73,2.67-2.4,2.49-2.74-.3-4-2.13-4.18-4.71-.1-1.52.64-2.66,2.33-2.5C96.09,314.38,97.06,316.43,97.54,318.84Z"/><path class="cls-1" d="M88.91,307.06c.11,1.62-.67,2.49-2,2.47A3.88,3.88,0,0,1,82.86,306c-.23-1.52.4-2.81,2.1-2.6A4.59,4.59,0,0,1,88.91,307.06Z"/><path class="cls-1" d="M80,299.06a2.05,2.05,0,0,1-2.66,1.62c-1.51-.31-3.08-.88-3.14-2.67s1.41-2.08,2.82-1.78A3.37,3.37,0,0,1,80,299.06Z"/></g></g></svg>